<svg width="659" height="570" viewBox="0 0 494.25 427.5" xmlns="http://www.w3.org/2000/svg" xmlns:xlink="http://www.w3.org/1999/xlink">
<g id="graph0" class="graph" transform="translate(190.934714968062,189.38897577430703) scale(0.3799812141003791)">
<title>ip_map</title>
<polygon fill="white" stroke="transparent" points="-4,4 -4,-472 555.11,-472 555.11,4 -4,4"/>
<!-- MH -->
<g id="node1" class="node">
<title>MH</title>
<ellipse fill="none" stroke="black" cx="217" cy="-450" rx="27" ry="18"/>
<text text-anchor="middle" x="217" y="-445.8" font-family="Helvetica,Arial,sans-serif" font-size="14.00">MH</text>
</g>
<!-- ERC -->
<g id="node2" class="node">
<title>ERC</title>
<ellipse fill="none" stroke="black" cx="217" cy="-378" rx="29.64" ry="18"/>
<text text-anchor="middle" x="217" y="-373.8" font-family="Helvetica,Arial,sans-serif" font-size="14.00">ERC</text>
</g>
<!-- MH&#45;&#45;ERC -->
<g id="edge1" class="edge">
<title>MH--ERC</title>
<path fill="none" stroke="black" d="M217,-431.7C217,-420.85 217,-406.92 217,-396.1"/>
</g>
<!-- ALC -->
<g id="node3" class="node">
<title>ALC</title>
<ellipse fill="none" stroke="black" cx="139" cy="-378" rx="30.2" ry="18"/>
<text text-anchor="middle" x="139" y="-373.8" font-family="Helvetica,Arial,sans-serif" font-size="14.00">ALC</text>
</g>
<!-- MH&#45;&#45;ALC -->
<g id="edge2" class="edge">
<title>MH--ALC</title>
<path fill="none" stroke="black" d="M201.59,-435.17C188.18,-423.14 168.81,-405.76 155.18,-393.52"/>
</g>
<!-- WH1 -->
<g id="node4" class="node">
<title>WH1</title>
<ellipse fill="none" stroke="black" cx="67" cy="-162" rx="31.91" ry="18"/>
<text text-anchor="middle" x="67" y="-157.8" font-family="Helvetica,Arial,sans-serif" font-size="14.00">WH1</text>
</g>
<!-- MH&#45;&#45;WH1 -->
<g id="edge3" class="edge">
<title>MH--WH1</title>
<path fill="none" stroke="black" d="M191.29,-444C164.68,-437.49 123.73,-423.53 100,-396 46.43,-333.85 52.86,-297.82 59,-216 59.91,-203.94 61.95,-190.46 63.75,-180.11"/>
</g>
<!-- HO1 -->
<g id="node5" class="node">
<title>HO1</title>
<ellipse fill="none" stroke="black" cx="275" cy="-306" rx="29.63" ry="18"/>
<text text-anchor="middle" x="275" y="-301.8" font-family="Helvetica,Arial,sans-serif" font-size="14.00">HO1</text>
</g>
<!-- MH&#45;&#45;HO1 -->
<g id="edge4" class="edge">
<title>MH--HO1</title>
<path fill="none" stroke="black" d="M230.48,-434.32C239.02,-424.24 249.63,-410.17 256,-396 266.62,-372.37 271.43,-342.49 273.52,-324.06"/>
</g>
<!-- IH1 -->
<g id="node6" class="node">
<title>IH1</title>
<ellipse fill="none" stroke="black" cx="317" cy="-162" rx="27" ry="18"/>
<text text-anchor="middle" x="317" y="-157.8" font-family="Helvetica,Arial,sans-serif" font-size="14.00">IH1</text>
</g>
<!-- MH&#45;&#45;IH1 -->
<g id="edge5" class="edge">
<title>MH--IH1</title>
<path fill="none" stroke="black" d="M234.17,-435.91C246.53,-425.9 263.07,-411.26 275,-396 319.82,-338.65 335.12,-322.56 353,-252 356.93,-236.49 357.7,-231.29 353,-216 348.62,-201.75 338.96,-187.9 330.75,-177.93"/>
</g>
<!-- MV -->
<g id="node7" class="node">
<title>MV</title>
<ellipse fill="none" stroke="black" cx="139" cy="-306" rx="27" ry="18"/>
<text text-anchor="middle" x="139" y="-301.8" font-family="Helvetica,Arial,sans-serif" font-size="14.00">MV</text>
</g>
<!-- ALC&#45;&#45;MV -->
<g id="edge6" class="edge">
<title>ALC--MV</title>
<path fill="none" stroke="black" d="M139,-359.7C139,-348.85 139,-334.92 139,-324.1"/>
</g>
<!-- HO3 -->
<g id="node9" class="node">
<title>HO3</title>
<ellipse fill="none" stroke="black" cx="170" cy="-234" rx="29.63" ry="18"/>
<text text-anchor="middle" x="170" y="-229.8" font-family="Helvetica,Arial,sans-serif" font-size="14.00">HO3</text>
</g>
<!-- HO1&#45;&#45;HO3 -->
<g id="edge25" class="edge">
<title>HO1--HO3</title>
<path fill="none" stroke="black" d="M255.74,-292.16C236.91,-279.61 208.4,-260.6 189.49,-247.99"/>
</g>
<!-- HR -->
<g id="node15" class="node">
<title>HR</title>
<ellipse fill="none" stroke="black" cx="245" cy="-234" rx="27" ry="18"/>
<text text-anchor="middle" x="245" y="-229.8" font-family="Helvetica,Arial,sans-serif" font-size="14.00">HR</text>
</g>
<!-- HO1&#45;&#45;HR -->
<g id="edge15" class="edge">
<title>HO1--HR</title>
<path fill="none" stroke="black" d="M267.89,-288.41C263.11,-277.25 256.83,-262.6 252.06,-251.47"/>
</g>
<!-- CB -->
<g id="node17" class="node">
<title>CB</title>
<ellipse fill="none" stroke="black" cx="317" cy="-234" rx="27" ry="18"/>
<text text-anchor="middle" x="317" y="-229.8" font-family="Helvetica,Arial,sans-serif" font-size="14.00">CB</text>
</g>
<!-- HO1&#45;&#45;CB -->
<g id="edge17" class="edge">
<title>HO1--CB</title>
<path fill="none" stroke="black" d="M284.74,-288.76C291.53,-277.46 300.54,-262.44 307.31,-251.15"/>
</g>
<!-- HV -->
<g id="node19" class="node">
<title>HV</title>
<ellipse fill="none" stroke="black" cx="427" cy="-234" rx="27" ry="18"/>
<text text-anchor="middle" x="427" y="-229.8" font-family="Helvetica,Arial,sans-serif" font-size="14.00">HV</text>
</g>
<!-- HO1&#45;&#45;HV -->
<g id="edge20" class="edge">
<title>HO1--HV</title>
<path fill="none" stroke="black" d="M298.09,-294.37C327.15,-280.98 376.72,-258.15 405.18,-245.05"/>
</g>
<!-- IH1&#45;&#45;IH1 -->

<!-- IHC -->
<g id="node18" class="node">
<title>IHC</title>
<ellipse fill="none" stroke="black" cx="317" cy="-90" rx="27.84" ry="18"/>
<text text-anchor="middle" x="317" y="-85.8" font-family="Helvetica,Arial,sans-serif" font-size="14.00">IHC</text>
</g>
<!-- IH1&#45;&#45;IHC -->
<g id="edge19" class="edge">
<title>IH1--IHC</title>
<path fill="none" stroke="black" d="M317,-143.7C317,-132.85 317,-118.92 317,-108.1"/>
</g>
<!-- IHP -->

<!-- IH1&#45;&#45;IHP -->

<!-- IW -->

<!-- IH1&#45;&#45;IW -->

<!-- IH2 -->
<g id="node21" class="node">
<title>IH2</title>
<ellipse fill="none" stroke="black" cx="473" cy="-378" rx="27" ry="18"/>
<text text-anchor="middle" x="473" y="-373.8" font-family="Helvetica,Arial,sans-serif" font-size="14.00">IH2</text>
</g>
<!-- IH1&#45;&#45;IH2 -->

<!-- IH4 -->
<g id="node20" class="node">
<title>IH4</title>
<ellipse fill="none" stroke="black" cx="473" cy="-306" rx="27" ry="18"/>
<text text-anchor="middle" x="473" y="-301.8" font-family="Helvetica,Arial,sans-serif" font-size="14.00">IH4</text>
</g>
<!-- IH1&#45;&#45;IH4 -->

<!-- AN -->
<g id="node8" class="node">
<title>AN</title>
<ellipse fill="none" stroke="black" cx="95" cy="-234" rx="27" ry="18"/>
<text text-anchor="middle" x="95" y="-229.8" font-family="Helvetica,Arial,sans-serif" font-size="14.00">AN</text>
</g>
<!-- MV&#45;&#45;AN -->
<g id="edge7" class="edge">
<title>MV--AN</title>
<path fill="none" stroke="black" d="M129.02,-289.12C121.81,-277.66 112.14,-262.26 104.94,-250.82"/>
</g>
<!-- MV&#45;&#45;HO3 -->
<g id="edge8" class="edge">
<title>MV--HO3</title>
<path fill="none" stroke="black" d="M146.35,-288.41C151.29,-277.25 157.78,-262.6 162.71,-251.47"/>
</g>
<!-- HO3&#45;&#45;WH1 -->
<g id="edge9" class="edge">
<title>HO3--WH1</title>
<path fill="none" stroke="black" d="M150.63,-219.83C132.33,-207.4 105.02,-188.84 86.64,-176.35"/>
</g>
<!-- HO3&#45;&#45;IH1 -->
<g id="edge26" class="edge">
<title>HO3--IH1</title>
<path fill="none" stroke="black" d="M192.65,-222.22C220.67,-208.87 268.05,-186.31 295.52,-173.23"/>
</g>
<!-- MT -->
<g id="node10" class="node">
<title>MT</title>
<ellipse fill="none" stroke="black" cx="170" cy="-162" rx="27" ry="18"/>
<text text-anchor="middle" x="170" y="-157.8" font-family="Helvetica,Arial,sans-serif" font-size="14.00">MT</text>
</g>
<!-- HO3&#45;&#45;MT -->
<g id="edge10" class="edge">
<title>HO3--MT</title>
<path fill="none" stroke="black" d="M170,-215.7C170,-204.85 170,-190.92 170,-180.1"/>
</g>
<!-- LZ -->
<g id="node11" class="node">
<title>LZ</title>
<ellipse fill="none" stroke="black" cx="171" cy="-90" rx="27" ry="18"/>
<text text-anchor="middle" x="171" y="-85.8" font-family="Helvetica,Arial,sans-serif" font-size="14.00">LZ</text>
</g>
<!-- MT&#45;&#45;LZ -->
<g id="edge11" class="edge">
<title>MT--LZ</title>
<path fill="none" stroke="black" d="M170.25,-143.7C170.4,-132.85 170.6,-118.92 170.76,-108.1"/>
</g>
<!-- FJ -->
<g id="node13" class="node">
<title>FJ</title>
<ellipse fill="none" stroke="black" cx="243" cy="-90" rx="27" ry="18"/>
<text text-anchor="middle" x="243" y="-85.8" font-family="Helvetica,Arial,sans-serif" font-size="14.00">FJ</text>
</g>
<!-- MT&#45;&#45;FJ -->
<g id="edge13" class="edge">
<title>MT--FJ</title>
<path fill="none" stroke="black" d="M184.77,-146.83C197.44,-134.69 215.59,-117.28 228.25,-105.14"/>
</g>
<!-- ER -->
<g id="node14" class="node">
<title>ER</title>
<ellipse fill="none" stroke="black" cx="27" cy="-90" rx="27" ry="18"/>
<text text-anchor="middle" x="27" y="-85.8" font-family="Helvetica,Arial,sans-serif" font-size="14.00">ER</text>
</g>
<!-- MT&#45;&#45;ER -->
<g id="edge14" class="edge">
<title>MT--ER</title>
<path fill="none" stroke="black" d="M148.9,-150.67C121.86,-137.44 75.26,-114.63 48.19,-101.37"/>
</g>
<!-- DR -->
<g id="node16" class="node">
<title>DR</title>
<ellipse fill="none" stroke="black" cx="99" cy="-90" rx="27" ry="18"/>
<text text-anchor="middle" x="99" y="-85.8" font-family="Helvetica,Arial,sans-serif" font-size="14.00">DR</text>
</g>
<!-- MT&#45;&#45;DR -->
<g id="edge16" class="edge">
<title>MT--DR</title>
<path fill="none" stroke="black" d="M155.29,-146.5C143.1,-134.48 125.87,-117.49 113.69,-105.49"/>
</g>
<!-- FL -->
<g id="node12" class="node">
<title>FL</title>
<ellipse fill="none" stroke="black" cx="171" cy="-18" rx="27" ry="18"/>
<text text-anchor="middle" x="171" y="-13.8" font-family="Helvetica,Arial,sans-serif" font-size="14.00">FL</text>
</g>
<!-- LZ&#45;&#45;FL -->
<g id="edge12" class="edge">
<title>LZ--FL</title>
<path fill="none" stroke="black" d="M171,-71.7C171,-60.85 171,-46.92 171,-36.1"/>
</g>
<g id="edge18" class="edge">
<title>CB--IH1</title>
<path fill="none" stroke="black" d="M317,-215.7C317,-204.85 317,-190.92 317,-180.1"/>
</g><g id="edge23" class="edge">
<title>IH2--HV</title>
<path fill="none" stroke="black" d="M459.79,-361.89C451.79,-351.85 442.17,-337.98 437,-324 428.21,-300.23 426.56,-270.65 426.52,-252.29"/>
</g><g id="edge27" class="edge">
<title>IH2--IH4</title>
<path fill="none" stroke="black" d="M473,-359.7C473,-348.85 473,-334.92 473,-324.1"/>
</g><g id="node22" class="node">
<title>MLM</title>
<ellipse fill="none" stroke="black" cx="517" cy="-234" rx="34.22" ry="18"/>
<text text-anchor="middle" x="517" y="-229.8" font-family="Helvetica,Arial,sans-serif" font-size="14.00">MLM</text>
</g><g id="edge24" class="edge">
<title>IH2--MLM</title>
<path fill="none" stroke="black" d="M486.32,-361.93C494.36,-351.9 503.99,-338.04 509,-324 517.51,-300.19 518.42,-270.62 517.97,-252.27"/>
</g><g id="edge21" class="edge">
<title>IH4--HV</title>
<path fill="none" stroke="black" d="M462.56,-289.12C455.03,-277.66 444.92,-262.26 437.4,-250.82"/>
</g><g id="edge22" class="edge">
<title>IH4--MLM</title>
<path fill="none" stroke="black" d="M482.98,-289.12C490.08,-277.82 499.59,-262.7 506.75,-251.31"/>
</g></g>
</svg>